# xmcd
#
# Track frame offsets: 
#        150
#        23321
#        44898
#        65483
#        97366
#        123949
#        147048
#        173668
#        203568
#        228288
#        246558
#        262810
#        282210
#        302070
#
# Disc length: 4412 seconds
#
# Revision: 0
# Processed by: cddbd v1.4PL0 Copyright (c) Steve Scherf et al.
# Submitted via: ExactAudioCopy v0.90a11
#
DISCID=c2113a0e
DTITLE=Jake Andrews - Jake Andrews
DYEAR=1900
DGENRE=
TTITLE0=They'll Never Know
TTITLE1=Better Start Now
TTITLE2=Just A Song
TTITLE3=In Your Sunshine
TTITLE4=Prince Of This World
TTITLE5=The Bitter End
TTITLE6=Easy To Come By
TTITLE7=No One Cries
TTITLE8=It Seems Time Has Ended (Again)
TTITLE9=2 Dirty Dogs
TTITLE10=Matters Of The Heart
TTITLE11=Tell Me
TTITLE12=Takin' Care Of Business
TTITLE13=Untitled
EXTD=
EXTT0=
EXTT1=
EXTT2=
EXTT3=
EXTT4=
EXTT5=
EXTT6=
EXTT7=
EXTT8=
EXTT9=
EXTT10=
EXTT11=
EXTT12=
EXTT13=
PLAYORDER=
